<svg xmlns="http://www.w3.org/2000/svg" viewBox="0 0 512 512">
  <rect width="512" height="512" fill="#0b1016" rx="112" />
  <!-- Leaf -->
  <path d="M304 152c-44.2 0-80 35.8-80 80 0 14.5 3.9 28.1 10.6 39.4L183.8 322.2c-6.2 6.2-6.2 16.4 0 22.6s16.4 6.2 22.6 0l50.8-50.8c11.3 6.7 24.9 10.6 39.4 10.6 44.2 0 80-35.8 80-80 0-21.7-8.6-41.4-22.6-56-11.4-11.9-27.1-23.7-44-23.7z" fill="#15f56b"/>
  <!-- Plus Symbol (D+) -->
  <path d="M192 192h32v24h-32v32h-24v-32h-32v-24h32v-32h24v32z" fill="#15f56b"/>
  <path d="M260 210h24v24h-24zM320 250h24v24h-24z" fill="#0b1016"/> <!-- Details -->
  <path d="M224 376h16v32h-16v-32zM272 376h16v32h-16v-32zM320 376h16v32h-16v-32z" fill="#15f56b"/>
  <path d="M240 280h16v32h-16v-32zM280 280h16v32h-16v-32z" fill="#15f56b"/>
  <!-- Central Big Plus -->
  <path d="M280 240h24v16h-24v24h-16v-24h-24v-16h24v-24h16v24z" fill="#0b1016"/>
</svg>
